<svg version="1.1" id="Layer_1" xmlns="http://www.w3.org/2000/svg" xmlns:xlink="http://www.w3.org/1999/xlink" x="0px" y="0px"
	 width="100%" viewBox="0 0 288 304" enable-background="new 0 0 288 304" xml:space="preserve">
<path fill="#000000" opacity="1.000000" stroke="none" 
	d="
M15.484020,143.583893 
	C18.005941,118.959579 25.717243,96.578659 40.015617,76.948891 
	C62.980480,45.421185 93.692177,26.426085 132.810852,21.620161 
	C147.687515,19.792492 162.411362,20.398554 176.880417,23.940989 
	C205.867432,31.037825 230.084122,45.917984 249.314499,68.973137 
	C265.794281,88.730629 275.335114,111.607094 278.935516,136.673065 
	C284.664703,176.559525 273.945007,212.158279 247.878738,242.940948 
	C227.498138,267.009247 201.928024,282.723145 170.851379,288.645081 
	C134.741592,295.526093 101.914307,287.096924 72.149178,265.945557 
	C48.017101,248.797073 31.356588,225.984222 21.855217,198.077637 
	C15.904300,180.599106 13.506505,162.526260 15.484020,143.583893 
M66.733696,180.487350 
	C77.276443,174.582886 88.414154,171.981812 100.356308,174.994125 
	C115.380951,178.783981 125.577911,188.535660 132.286865,201.987564 
	C142.791092,199.609589 142.773224,199.609604 142.761322,189.644379 
	C142.739441,171.315369 142.700775,152.986160 142.772736,134.657440 
	C142.784485,131.664383 142.320786,129.237091 139.748962,127.236137 
	C137.181732,125.238762 135.828217,122.427086 135.713943,118.991264 
	C135.470139,111.660774 128.147980,105.164185 120.665298,105.445892 
	C115.548691,105.638527 112.004898,102.525970 111.634598,97.514137 
	C111.243370,92.219086 114.576462,88.040359 119.398315,87.780693 
	C124.116341,87.526619 127.928909,90.850899 128.204163,95.915230 
	C128.336090,98.342499 129.161484,99.954315 131.103485,101.305862 
	C133.286606,102.825241 135.266602,104.633179 137.410950,106.212418 
	C140.578888,108.545502 144.272659,107.049835 144.625351,103.165764 
	C145.016785,98.854790 145.067673,94.734810 141.396500,91.211395 
	C138.582199,88.510368 139.188248,84.725906 140.880630,81.431770 
	C142.462250,78.353203 145.127930,76.764694 148.666565,77.107430 
	C152.468613,77.475677 154.611145,80.080643 155.822800,83.309853 
	C157.180267,86.927742 155.976898,90.100616 153.330414,92.880424 
	C149.838928,96.547783 151.198212,101.087822 151.949158,105.155502 
	C152.314407,107.134003 155.408752,108.565880 157.306732,106.976433 
	C161.189743,103.724625 166.810959,102.023239 167.238892,95.399551 
	C167.531860,90.864777 172.887161,87.313774 176.990082,88.001610 
	C181.277710,88.720406 184.753494,93.535812 184.195618,97.984268 
	C183.578751,102.903023 179.358963,106.162384 174.313583,105.617104 
	C169.008224,105.043739 160.293640,112.369812 160.389420,117.638100 
	C160.469482,122.042099 158.865280,125.413651 155.415359,127.960121 
	C153.583603,129.312164 152.336105,130.760239 152.344742,133.275269 
	C152.415726,153.936646 152.402695,174.598389 152.376846,195.259979 
	C152.374039,197.500519 153.128860,198.876709 155.313263,199.878998 
	C161.029190,202.501678 161.615860,202.508514 164.691116,196.994858 
	C173.395096,181.389404 193.097748,170.934967 211.087158,174.533646 
	C217.814316,175.879395 223.942383,178.527191 229.969635,181.396576 
	C232.188309,178.345413 233.021194,175.253143 233.503571,172.156860 
	C236.409241,153.505798 234.703476,135.499695 226.739578,118.088608 
	C209.542862,80.492233 165.435959,56.670555 121.835533,70.781471 
	C101.517738,77.357170 85.586967,89.730469 74.333290,107.722885 
	C60.878838,129.233932 57.542381,152.594879 63.487160,177.243073 
	C63.814503,178.600311 63.626743,180.846115 66.733696,180.487350 
M103.343254,66.747459 
	C121.655304,57.422413 140.902954,53.617661 161.369614,56.803318 
	C185.563873,60.569183 206.053497,71.515182 221.448196,90.395767 
	C244.747574,118.970940 251.372070,151.314972 240.198074,186.848618 
	C239.694672,188.449448 239.253998,189.837006 240.128128,191.597504 
	C243.393829,198.174713 247.831207,202.979218 255.485733,204.541916 
	C258.480377,205.153275 259.642944,204.621338 260.740173,201.973175 
	C271.021667,177.158707 272.540375,151.585541 266.331757,125.717003 
	C260.308746,100.621872 247.290878,79.547508 227.934128,62.214127 
	C203.879883,40.674290 175.494888,30.909948 143.769577,31.569166 
	C124.515465,31.969248 105.911842,36.959446 88.975914,46.771297 
	C56.833870,65.392830 36.622299,92.913719 28.211958,129.021667 
	C24.715588,144.032578 24.258501,159.345947 26.564253,174.525421 
	C28.173725,185.121094 31.152292,195.512238 35.971069,204.950745 
	C45.169594,204.146225 50.473083,199.024063 54.334160,191.642212 
	C55.423992,189.558624 55.929817,188.134323 55.149483,185.758423 
	C47.160114,161.432739 49.233006,137.560501 59.158955,114.258125 
	C68.037430,93.414818 82.893814,77.937439 103.343254,66.747459 
M173.437424,235.963531 
	C174.367035,237.343857 175.274460,238.739731 176.229660,240.102097 
	C187.963821,256.838409 214.861694,258.667267 228.830368,243.683838 
	C239.782166,231.936508 241.651367,215.449814 234.109253,202.162018 
	C226.643784,189.009262 208.971512,181.649200 194.784637,185.841980 
	C174.024033,191.977570 162.854446,216.069626 173.437424,235.963531 
M88.801422,184.442108 
	C65.912659,187.459518 51.840149,205.312332 56.473572,226.511124 
	C60.680592,245.759033 77.159996,257.357391 97.700111,253.136688 
	C114.882637,249.605911 126.412460,232.780487 124.651817,215.647781 
	C122.840462,198.021713 107.997192,184.780472 88.801422,184.442108 
M101.914978,270.638885 
	C139.997696,287.476532 186.955399,277.610474 201.278000,265.313049 
	C200.519943,265.194855 199.872513,265.099335 199.226974,264.992432 
	C174.876846,260.960449 158.002228,241.113159 158.876862,217.933334 
	C159.053680,213.247223 156.092468,211.905441 152.754242,210.713303 
	C149.207962,209.446884 145.462570,209.631470 141.936111,210.628815 
	C137.822739,211.792175 135.092300,214.084976 135.302567,219.178574 
	C136.187393,240.613190 119.108253,259.986328 99.093773,263.940460 
	C97.218910,264.310852 95.199234,264.331543 93.169174,266.000305 
	C96.028671,267.551910 98.620300,268.958191 101.914978,270.638885 
z"/>
</svg>